<svg width="20" height="20" viewBox="0 0 20 20" fill="none" xmlns="http://www.w3.org/2000/svg">
<g clip-path="url(#clip0_1121_647)">
<path d="M6.68907 3.54828C7.45657 2.85472 8.36446 2.34771 9.65456 1.86435C9.8451 1.79296 10.0839 1.86823 10.2065 2.08016L11.5102 4.33826C11.648 4.57735 11.5663 4.88327 11.3272 5.02127L10.2422 5.64773C10.1999 5.67213 10.1537 5.6902 10.1063 5.70139L9.29251 5.89155C8.33555 6.116 7.6368 7.02844 7.79072 8.05991C7.95467 9.15735 8.21868 10.0899 8.69514 10.9331C9.17346 11.7794 9.84024 12.49 10.743 13.1832C11.5594 13.8099 12.6704 13.6401 13.3253 12.9429L13.9212 12.3091C13.9546 12.2735 13.9933 12.2426 14.0356 12.2182L15.1207 11.5917C15.3598 11.4537 15.6656 11.5357 15.8037 11.7747L17.3813 14.5073C17.5135 14.7365 17.4408 15.003 17.2553 15.1269C16.0533 15.9282 15.0692 16.3993 13.9786 16.641C12.0716 17.0635 10.0221 16.2903 8.4649 14.8819C6.66657 13.2554 5.68596 11.6486 5.16829 9.39468C4.67373 7.24086 5.16064 4.92963 6.68907 3.54828Z" stroke="#7C7D8B" stroke-width="1.5" stroke-linecap="round"/>
</g>
<defs>
<clipPath id="clip0_1121_647">
<rect width="20" height="20" fill="white"/>
</clipPath>
</defs>
</svg>
